<svg width="323" height="37" viewBox="0 0 323 37" fill="none" xmlns="http://www.w3.org/2000/svg">
<path d="M11.6641 36H4.16406L4.21094 30.0938H11.6641C13.3672 30.0938 14.8047 29.7031 15.9766 28.9219C17.1484 28.125 18.0391 26.9531 18.6484 25.4062C19.2578 23.8438 19.5625 21.9453 19.5625 19.7109V18.1406C19.5625 16.4531 19.3906 14.9688 19.0469 13.6875C18.7031 12.3906 18.1953 11.3047 17.5234 10.4297C16.8516 9.55469 16.0156 8.89844 15.0156 8.46094C14.0312 8.02344 12.8984 7.80469 11.6172 7.80469H4.02344V1.875H11.6172C13.9297 1.875 16.0391 2.26563 17.9453 3.04688C19.8672 3.82812 21.5234 4.94531 22.9141 6.39844C24.3203 7.85156 25.4062 9.57031 26.1719 11.5547C26.9375 13.5391 27.3203 15.75 27.3203 18.1875V19.7109C27.3203 22.1328 26.9375 24.3438 26.1719 26.3438C25.4062 28.3281 24.3203 30.0469 22.9141 31.5C21.5234 32.9375 19.875 34.0469 17.9688 34.8281C16.0625 35.6094 13.9609 36 11.6641 36ZM8.5 1.875V36H0.859375V1.875H8.5ZM43.5625 36.4688C41.5469 36.4688 39.7422 36.1484 38.1484 35.5078C36.5547 34.8672 35.2031 33.9844 34.0938 32.8594C33 31.7188 32.1641 30.4062 31.5859 28.9219C31.0078 27.4375 30.7188 25.8516 30.7188 24.1641V23.2734C30.7188 21.3828 30.9844 19.6406 31.5156 18.0469C32.0469 16.4531 32.8203 15.0703 33.8359 13.8984C34.8672 12.7109 36.1328 11.7969 37.6328 11.1562C39.1328 10.5 40.8438 10.1719 42.7656 10.1719C44.5625 10.1719 46.1641 10.4688 47.5703 11.0625C48.9766 11.6406 50.1641 12.4766 51.1328 13.5703C52.1016 14.6484 52.8359 15.9531 53.3359 17.4844C53.8516 19 54.1094 20.7031 54.1094 22.5938V25.5938H33.6719V20.8828H46.9375V20.3203C46.9375 19.4297 46.7734 18.6484 46.4453 17.9766C46.1328 17.3047 45.6641 16.7891 45.0391 16.4297C44.4297 16.0547 43.6562 15.8672 42.7188 15.8672C41.8281 15.8672 41.0859 16.0547 40.4922 16.4297C39.8984 16.8047 39.4219 17.3359 39.0625 18.0234C38.7188 18.6953 38.4688 19.4844 38.3125 20.3906C38.1562 21.2812 38.0781 22.2422 38.0781 23.2734V24.1641C38.0781 25.1484 38.2109 26.0469 38.4766 26.8594C38.7422 27.6719 39.1328 28.3672 39.6484 28.9453C40.1641 29.5234 40.7891 29.9766 41.5234 30.3047C42.2578 30.6328 43.0938 30.7969 44.0312 30.7969C45.1875 30.7969 46.2891 30.5781 47.3359 30.1406C48.3828 29.6875 49.2891 28.9844 50.0547 28.0312L53.4766 31.9453C52.9609 32.6953 52.2344 33.4219 51.2969 34.125C50.375 34.8125 49.2656 35.375 47.9688 35.8125C46.6719 36.25 45.2031 36.4688 43.5625 36.4688ZM66.2266 30.8203L71.5234 10.6406H79.2109L70.7969 36H66.1797L66.2266 30.8203ZM62.8047 10.6406L68.0781 30.8438L68.125 36H63.5078L55.0938 10.6406H62.8047ZM97.8906 1.875H104.219L112.422 26.2734L120.602 1.875H126.93L114.977 36H109.844L97.8906 1.875ZM94.2344 1.875H100.68L101.875 27.1641V36H94.2344V1.875ZM124.141 1.875H130.609V36H122.945V27.1641L124.141 1.875ZM147.859 36.4688C145.844 36.4688 144.039 36.1484 142.445 35.5078C140.852 34.8672 139.5 33.9844 138.391 32.8594C137.297 31.7188 136.461 30.4062 135.883 28.9219C135.305 27.4375 135.016 25.8516 135.016 24.1641V23.2734C135.016 21.3828 135.281 19.6406 135.812 18.0469C136.344 16.4531 137.117 15.0703 138.133 13.8984C139.164 12.7109 140.43 11.7969 141.93 11.1562C143.43 10.5 145.141 10.1719 147.062 10.1719C148.859 10.1719 150.461 10.4688 151.867 11.0625C153.273 11.6406 154.461 12.4766 155.43 13.5703C156.398 14.6484 157.133 15.9531 157.633 17.4844C158.148 19 158.406 20.7031 158.406 22.5938V25.5938H137.969V20.8828H151.234V20.3203C151.234 19.4297 151.07 18.6484 150.742 17.9766C150.43 17.3047 149.961 16.7891 149.336 16.4297C148.727 16.0547 147.953 15.8672 147.016 15.8672C146.125 15.8672 145.383 16.0547 144.789 16.4297C144.195 16.8047 143.719 17.3359 143.359 18.0234C143.016 18.6953 142.766 19.4844 142.609 20.3906C142.453 21.2812 142.375 22.2422 142.375 23.2734V24.1641C142.375 25.1484 142.508 26.0469 142.773 26.8594C143.039 27.6719 143.43 28.3672 143.945 28.9453C144.461 29.5234 145.086 29.9766 145.82 30.3047C146.555 30.6328 147.391 30.7969 148.328 30.7969C149.484 30.7969 150.586 30.5781 151.633 30.1406C152.68 29.6875 153.586 28.9844 154.352 28.0312L157.773 31.9453C157.258 32.6953 156.531 33.4219 155.594 34.125C154.672 34.8125 153.562 35.375 152.266 35.8125C150.969 36.25 149.5 36.4688 147.859 36.4688ZM176.734 30.3281V0H184.094V36H177.484L176.734 30.3281ZM160.938 23.625V23.1328C160.938 21.2109 161.148 19.4609 161.57 17.8828C162.008 16.2891 162.641 14.9219 163.469 13.7812C164.312 12.625 165.352 11.7344 166.586 11.1094C167.82 10.4844 169.234 10.1719 170.828 10.1719C172.297 10.1719 173.578 10.5 174.672 11.1562C175.766 11.7969 176.695 12.7031 177.461 13.875C178.242 15.0312 178.875 16.3984 179.359 17.9766C179.844 19.5391 180.211 21.2344 180.461 23.0625V23.9062C180.227 25.6562 179.859 27.2891 179.359 28.8047C178.875 30.3203 178.242 31.6562 177.461 32.8125C176.695 33.9531 175.758 34.8516 174.648 35.5078C173.555 36.1484 172.266 36.4688 170.781 36.4688C169.188 36.4688 167.773 36.1484 166.539 35.5078C165.32 34.8672 164.297 33.9688 163.469 32.8125C162.641 31.6562 162.008 30.2969 161.57 28.7344C161.148 27.1719 160.938 25.4688 160.938 23.625ZM168.25 23.1328V23.625C168.25 24.625 168.32 25.5547 168.461 26.4141C168.617 27.2734 168.867 28.0312 169.211 28.6875C169.555 29.3438 170.008 29.8594 170.57 30.2344C171.133 30.5938 171.82 30.7734 172.633 30.7734C173.727 30.7734 174.625 30.5234 175.328 30.0234C176.031 29.5078 176.562 28.7969 176.922 27.8906C177.281 26.9844 177.469 25.9297 177.484 24.7266V22.2656C177.484 21.2656 177.383 20.3672 177.18 19.5703C176.977 18.7734 176.672 18.1016 176.266 17.5547C175.875 17.0078 175.383 16.5938 174.789 16.3125C174.195 16.0156 173.492 15.8672 172.68 15.8672C171.883 15.8672 171.203 16.0547 170.641 16.4297C170.078 16.7891 169.617 17.2969 169.258 17.9531C168.914 18.6094 168.656 19.3828 168.484 20.2734C168.328 21.1484 168.25 22.1016 168.25 23.1328ZM196.68 10.6406V36H189.344V10.6406H196.68ZM188.898 4.07812C188.898 3.01563 189.273 2.14844 190.023 1.47656C190.773 0.789063 191.758 0.445312 192.977 0.445312C194.195 0.445312 195.18 0.789063 195.93 1.47656C196.695 2.14844 197.078 3.01563 197.078 4.07812C197.078 5.125 196.695 5.99219 195.93 6.67969C195.18 7.35156 194.195 7.6875 192.977 7.6875C191.758 7.6875 190.773 7.35156 190.023 6.67969C189.273 5.99219 188.898 5.125 188.898 4.07812ZM214.844 10.6406V15.7734H199.797V10.6406H214.844ZM203.242 4.35938H210.578V28.0547C210.578 28.7578 210.664 29.2969 210.836 29.6719C211.008 30.0469 211.289 30.3125 211.68 30.4688C212.07 30.6094 212.57 30.6797 213.18 30.6797C213.617 30.6797 213.992 30.6641 214.305 30.6328C214.617 30.6016 214.906 30.5625 215.172 30.5156V35.8125C214.547 36.0156 213.883 36.1719 213.18 36.2812C212.477 36.4062 211.711 36.4688 210.883 36.4688C209.305 36.4688 207.938 36.2109 206.781 35.6953C205.641 35.1797 204.766 34.3672 204.156 33.2578C203.547 32.1328 203.242 30.6719 203.242 28.875V4.35938ZM231.789 29.9531V19.0781C231.789 18.3125 231.672 17.6562 231.438 17.1094C231.203 16.5625 230.836 16.1328 230.336 15.8203C229.836 15.5078 229.188 15.3516 228.391 15.3516C227.719 15.3516 227.133 15.4688 226.633 15.7031C226.148 15.9375 225.773 16.2734 225.508 16.7109C225.258 17.1484 225.133 17.6875 225.133 18.3281H217.82C217.82 17.1875 218.078 16.125 218.594 15.1406C219.109 14.1562 219.844 13.2891 220.797 12.5391C221.766 11.7891 222.922 11.2109 224.266 10.8047C225.609 10.3828 227.117 10.1719 228.789 10.1719C230.773 10.1719 232.539 10.5078 234.086 11.1797C235.648 11.8359 236.883 12.8281 237.789 14.1562C238.695 15.4688 239.148 17.125 239.148 19.125V29.7422C239.148 31.2734 239.234 32.4766 239.406 33.3516C239.594 34.2109 239.859 34.9609 240.203 35.6016V36H232.82C232.477 35.2656 232.219 34.3594 232.047 33.2812C231.875 32.1875 231.789 31.0781 231.789 29.9531ZM232.703 20.5312L232.75 24.5625H229.117C228.305 24.5625 227.602 24.6641 227.008 24.8672C226.43 25.0703 225.961 25.3516 225.602 25.7109C225.242 26.0547 224.977 26.4609 224.805 26.9297C224.648 27.3828 224.57 27.8828 224.57 28.4297C224.57 28.9453 224.695 29.4141 224.945 29.8359C225.195 30.2422 225.539 30.5625 225.977 30.7969C226.414 31.0312 226.922 31.1484 227.5 31.1484C228.453 31.1484 229.266 30.9609 229.938 30.5859C230.625 30.2109 231.156 29.7578 231.531 29.2266C231.906 28.6797 232.094 28.1719 232.094 27.7031L233.852 30.75C233.57 31.375 233.227 32.0234 232.82 32.6953C232.414 33.3516 231.898 33.9688 231.273 34.5469C230.648 35.1094 229.891 35.5703 229 35.9297C228.125 36.2891 227.07 36.4688 225.836 36.4688C224.242 36.4688 222.797 36.1484 221.5 35.5078C220.203 34.8516 219.164 33.9531 218.383 32.8125C217.617 31.6719 217.234 30.3594 217.234 28.875C217.234 27.5469 217.477 26.3672 217.961 25.3359C218.445 24.3047 219.172 23.4297 220.141 22.7109C221.125 21.9922 222.359 21.4531 223.844 21.0938C225.328 20.7188 227.062 20.5312 229.047 20.5312H232.703ZM256.844 10.6406V15.7734H241.797V10.6406H256.844ZM245.242 4.35938H252.578V28.0547C252.578 28.7578 252.664 29.2969 252.836 29.6719C253.008 30.0469 253.289 30.3125 253.68 30.4688C254.07 30.6094 254.57 30.6797 255.18 30.6797C255.617 30.6797 255.992 30.6641 256.305 30.6328C256.617 30.6016 256.906 30.5625 257.172 30.5156V35.8125C256.547 36.0156 255.883 36.1719 255.18 36.2812C254.477 36.4062 253.711 36.4688 252.883 36.4688C251.305 36.4688 249.938 36.2109 248.781 35.6953C247.641 35.1797 246.766 34.3672 246.156 33.2578C245.547 32.1328 245.242 30.6719 245.242 28.875V4.35938ZM268.07 10.6406V36H260.734V10.6406H268.07ZM260.289 4.07812C260.289 3.01563 260.664 2.14844 261.414 1.47656C262.164 0.789063 263.148 0.445312 264.367 0.445312C265.586 0.445312 266.57 0.789063 267.32 1.47656C268.086 2.14844 268.469 3.01563 268.469 4.07812C268.469 5.125 268.086 5.99219 267.32 6.67969C266.57 7.35156 265.586 7.6875 264.367 7.6875C263.148 7.6875 262.164 7.35156 261.414 6.67969C260.664 5.99219 260.289 5.125 260.289 4.07812ZM272.289 23.5781V23.0859C272.289 21.2266 272.555 19.5156 273.086 17.9531C273.617 16.375 274.398 15.0078 275.43 13.8516C276.461 12.6953 277.727 11.7969 279.227 11.1562C280.727 10.5 282.445 10.1719 284.383 10.1719C286.352 10.1719 288.086 10.5 289.586 11.1562C291.102 11.7969 292.375 12.6953 293.406 13.8516C294.438 15.0078 295.219 16.375 295.75 17.9531C296.281 19.5156 296.547 21.2266 296.547 23.0859V23.5781C296.547 25.4219 296.281 27.1328 295.75 28.7109C295.219 30.2734 294.438 31.6406 293.406 32.8125C292.375 33.9688 291.109 34.8672 289.609 35.5078C288.109 36.1484 286.383 36.4688 284.43 36.4688C282.492 36.4688 280.766 36.1484 279.25 35.5078C277.734 34.8672 276.461 33.9688 275.43 32.8125C274.398 31.6406 273.617 30.2734 273.086 28.7109C272.555 27.1328 272.289 25.4219 272.289 23.5781ZM279.625 23.0859V23.5781C279.625 24.5781 279.703 25.5156 279.859 26.3906C280.031 27.2656 280.305 28.0312 280.68 28.6875C281.055 29.3438 281.547 29.8594 282.156 30.2344C282.781 30.5938 283.539 30.7734 284.43 30.7734C285.32 30.7734 286.07 30.5938 286.68 30.2344C287.289 29.8594 287.781 29.3438 288.156 28.6875C288.531 28.0312 288.797 27.2656 288.953 26.3906C289.125 25.5156 289.211 24.5781 289.211 23.5781V23.0859C289.211 22.1016 289.125 21.1797 288.953 20.3203C288.797 19.4453 288.531 18.6719 288.156 18C287.781 17.3281 287.281 16.8047 286.656 16.4297C286.047 16.0547 285.289 15.8672 284.383 15.8672C283.508 15.8672 282.766 16.0547 282.156 16.4297C281.547 16.8047 281.055 17.3281 280.68 18C280.305 18.6719 280.031 19.4453 279.859 20.3203C279.703 21.1797 279.625 22.1016 279.625 23.0859ZM307.562 16.0547V36H300.227V10.6406H307.117L307.562 16.0547ZM306.602 22.4297L304.773 22.4766C304.773 20.5703 305.008 18.8594 305.477 17.3438C305.945 15.8281 306.609 14.5391 307.469 13.4766C308.344 12.3984 309.383 11.5781 310.586 11.0156C311.805 10.4531 313.148 10.1719 314.617 10.1719C315.805 10.1719 316.891 10.3438 317.875 10.6875C318.859 11.0312 319.703 11.5859 320.406 12.3516C321.125 13.1016 321.672 14.1016 322.047 15.3516C322.422 16.5859 322.609 18.1094 322.609 19.9219V36H315.25V19.8984C315.25 18.8359 315.102 18.0156 314.805 17.4375C314.508 16.8594 314.07 16.4531 313.492 16.2188C312.93 15.9844 312.242 15.8672 311.43 15.8672C310.57 15.8672 309.836 16.0391 309.227 16.3828C308.617 16.7109 308.117 17.1719 307.727 17.7656C307.336 18.3594 307.047 19.0547 306.859 19.8516C306.688 20.6484 306.602 21.5078 306.602 22.4297Z" fill="#F9E757"/>
</svg>
